# xmcd CD database file
#
# Track frame offsets:
#	225
#	35859
#	84685
#	121095
#	163818
#	194740
#	211002
#	240891
#	273386
#
# Disc length: 3866 seconds
#
# Revision: 0
# Processed by: cddbd v1.5.2PL0 Copyright (c) Steve Scherf et al.
# Submitted via: CDex 1.51
#
DISCID=7b0f1709
DTITLE=unidentified flying orchestra - U.F.O
DYEAR=2008
DGENRE=Jazz
TTITLE0=fast forward
TTITLE1=frost
TTITLE2=jmz
TTITLE3=mast and schotbruch
TTITLE4=superpursuit mode
TTITLE5=trennkost
TTITLE6=trillerpfeife
TTITLE7=reset
TTITLE8=wasserflecken
EXTD=YEAR: 2008
EXTT0=
EXTT1=
EXTT2=
EXTT3=
EXTT4=
EXTT5=
EXTT6=
EXTT7=
EXTT8=
PLAYORDER=
